# xmcd
# 
# Track frame offsets:
#     150
#     18782
#     40089
#     57131
#     69949
#     88612
#     105419
#     131733
# 
# Disc length: 2064
# 
# Revision: 0
# Processed by: cddbd v1.5.2PL0 Copyright (c) Steve Scherf et al.
# Submitted via: fre:ac v1.0.17
# 
DISCID=59080e08
DTITLE=barcosDpapel - barcosDpapel
DYEAR=2012
DGENRE=Rock
TTITLE0=Nubes rojas
TTITLE1=Nave 6
TTITLE2=Estamos bien
TTITLE3=No te creo!
TTITLE4=Es momento
TTITLE5=La evidencia de otro crimen
TTITLE6=Barcos de papel
TTITLE7=No quiero
EXTD=Muy buen disco. Desde México.
EXTT0=
EXTT1=
EXTT2=
EXTT3=
EXTT4=
EXTT5=
EXTT6=
EXTT7=
PLAYORDER=
